<svg width="50" height="44" viewBox="0 0 50 44" fill="none" xmlns="http://www.w3.org/2000/svg">
<line x1="1.5" y1="-1.5" x2="30.5156" y2="-1.5" transform="matrix(0.780869 0.624695 -0.827674 0.561209 0 24)" stroke="#FEAC48" stroke-width="3" stroke-linecap="round"/>
<line x1="1.5" y1="-1.5" x2="30.5156" y2="-1.5" transform="matrix(0.780869 -0.624695 -0.827674 -0.561209 23 42)" stroke="#FEAC48" stroke-width="3" stroke-linecap="round"/>
<line x1="1.5" y1="-1.5" x2="30.5156" y2="-1.5" transform="matrix(0.780869 0.624695 -0.827674 0.561209 0 13)" stroke="#FEAC48" stroke-width="3" stroke-linecap="round"/>
<line x1="1.5" y1="-1.5" x2="30.5156" y2="-1.5" transform="matrix(0.780869 -0.624695 -0.827674 -0.561209 23 31)" stroke="#FEAC48" stroke-width="3" stroke-linecap="round"/>
<line x1="1.5" y1="-1.5" x2="30.5156" y2="-1.5" transform="matrix(0.780869 0.624695 -0.827674 0.561209 0 2)" stroke="#FEAC48" stroke-width="3" stroke-linecap="round"/>
<line x1="1.5" y1="-1.5" x2="30.5156" y2="-1.5" transform="matrix(0.780869 -0.624695 -0.827674 -0.561209 23 20)" stroke="#FEAC48" stroke-width="3" stroke-linecap="round"/>
</svg>
