<svg width="311" height="292" viewBox="0 0 311 292" fill="none" xmlns="http://www.w3.org/2000/svg">
<path d="M126.782 173.247C147.493 137.373 193.364 125.083 229.237 145.793C265.109 166.505 277.401 212.375 256.689 248.249C235.978 284.122 190.107 296.412 154.235 275.702C118.362 254.989 106.072 209.12 126.782 173.247Z" stroke="#FEAC48" stroke-width="10"/>
<path d="M15.0613 108.792C35.7719 72.9181 81.643 60.6278 117.516 81.3384C153.388 102.051 165.679 147.92 144.968 183.794C124.258 219.667 78.3863 231.957 42.5137 211.247C6.64109 190.535 -5.65089 144.665 15.0613 108.792Z" stroke="#FEAC48" stroke-width="10"/>
<path d="M53.3435 42.5137C74.0541 6.64109 119.925 -5.65089 155.798 15.0613C191.671 35.7719 203.961 81.6431 183.25 117.516C162.54 153.388 116.669 165.68 80.796 144.968C44.9233 124.258 32.6313 78.3863 53.3435 42.5137Z" stroke="#FEAC48" stroke-width="10"/>
<path d="M165.064 106.969C185.775 71.0959 231.646 58.8039 267.519 79.5162C303.391 100.227 315.683 146.098 294.971 181.971C274.261 217.843 228.39 230.135 192.517 209.423C156.644 188.712 144.354 142.841 165.064 106.969Z" stroke="#FEAC48" stroke-width="10"/>
<path d="M89.5425 108.531C110.253 72.6584 156.124 60.3664 191.997 81.0787C227.87 101.789 240.162 147.66 219.449 183.533C198.739 219.406 152.868 231.698 116.995 210.985C81.1223 190.275 68.8303 144.404 89.5425 108.531Z" stroke="#FEAC48" stroke-width="10"/>
<path d="M52.0415 173.506C72.7521 137.633 118.623 125.343 154.496 146.054C190.369 166.764 202.661 212.635 181.948 248.508C161.238 284.381 115.367 296.673 79.494 275.96C43.6213 255.25 31.3293 209.379 52.0415 173.506Z" stroke="#FEAC48" stroke-width="10"/>
<path d="M127.043 43.5555C147.754 7.68286 193.625 -4.60915 229.498 16.1031C265.37 36.8136 277.663 82.6848 256.95 118.557C236.24 154.43 190.369 166.72 154.496 146.01C118.623 125.299 106.331 79.4281 127.043 43.5555Z" stroke="#FEAC48" stroke-width="10"/>
</svg>
